<svg xmlns="http://www.w3.org/2000/svg" viewBox="0 0 1600 900" preserveAspectRatio="xMidYMid slice">
  <defs>
    <linearGradient id="body" x1="0" y1="0" x2="0" y2="1">
      <stop offset="0" stop-color="#26346f"/>
      <stop offset=".58" stop-color="#574181"/>
      <stop offset="1" stop-color="#a94872"/>
    </linearGradient>
    <linearGradient id="lit" x1="0" y1="0" x2=".3" y2="1">
      <stop offset="0" stop-color="#c67ba4"/>
      <stop offset=".62" stop-color="#8a527f"/>
      <stop offset="1" stop-color="#ff8b6c"/>
    </linearGradient>
    <linearGradient id="deep" x1="0" y1="0" x2="0" y2="1">
      <stop offset="0" stop-color="#18285f"/>
      <stop offset="1" stop-color="#46346d"/>
    </linearGradient>
    <filter id="softEdge" x="-10%" y="-10%" width="120%" height="120%">
      <feTurbulence type="fractalNoise" baseFrequency=".009 .018" numOctaves="2" seed="8" result="noise"/>
      <feDisplacementMap in="SourceGraphic" in2="noise" scale="5" xChannelSelector="R" yChannelSelector="B"/>
    </filter>
  </defs>

  <!-- towering left storm system -->
  <g filter="url(#softEdge)" opacity=".96">
    <path fill="url(#body)" d="M-80 296C-42 265-19 235 31 232c-7-52 28-89 74-90 6-71 60-123 127-115 44-74 153-42 162 39 54-25 112 17 105 72 58-12 108 29 100 84 54 8 81 40 80 74-129 38-444 46-659 0Z"/>
    <path fill="#33437b" d="M-24 259c39-38 75-51 119-34 4-41 35-70 74-67 20-55 79-78 126-43-21 12-39 32-44 56-43-21-88 2-96 43-48-13-85 6-101 43-31-9-54-7-78 2Z"/>
    <path fill="url(#lit)" d="M37 220c31-31 63-37 94-21 8-43 47-71 88-61 23-57 90-76 137-34-52-11-92 19-102 63-40-15-78 8-85 47-46-17-93 3-111 39-15-11-25-21-21-33Z"/>
    <path fill="#d78cab" d="M68 195c18-18 38-25 60-18 17-34 49-48 81-36-29 8-47 27-54 52-33-9-59 1-75 26-10-5-16-13-12-24Z" opacity=".72"/>
    <path fill="#f6a17f" d="M-48 291c92 18 176 4 250 12 92 10 190-5 309-24-82 49-206 63-337 49-94-10-155 3-222-4Z" opacity=".58"/>
    <path fill="#17265d" d="M245 261c27-45 77-59 116-32 20-47 80-58 114-18 35-21 78-3 87 31-101 23-202 28-317 19Z" opacity=".78"/>
  </g>

  <!-- high wind-swept cloud ribbons -->
  <g opacity=".72">
    <path fill="#64518e" d="M500 84c115 42 188 21 273-14-56 57-148 79-244 52 76 52 149 52 241 16-81 72-190 65-292 10 42 2 66-11 22-64Z"/>
    <path fill="#956399" d="M718 91c77-23 133-55 211-70-67 45-104 77-190 95l96 5c-51 24-103 26-159 7Z"/>
    <path fill="#ef927f" d="M885 58c49-11 87-35 122-61-20 38-56 66-106 82l72-4c-32 17-64 24-106 15Z" opacity=".7"/>
    <path fill="#d77992" d="M1038 153c88 14 162-2 242-48-54 66-135 91-239 75l89 29c-57 5-109-8-157-39Z" opacity=".55"/>
  </g>

  <!-- monumental right cloud tower -->
  <g filter="url(#softEdge)" opacity=".97">
    <path fill="url(#body)" d="M1061 388c20-55 57-78 104-67-5-52 34-91 82-88 7-77 69-130 138-112 40-58 129-27 131 43 60-25 117 24 102 83 46 0 83 39 77 85 37 10 61 38 65 69-207 37-477 32-699-13Z"/>
    <path fill="#34447c" d="M1120 350c26-39 60-52 96-36-4-45 29-76 68-72 13-59 66-91 119-65-25 14-40 36-43 66-41-17-81 9-83 50-42-12-83 15-89 56-24-12-47-13-68 1Z"/>
    <path fill="url(#lit)" d="M1190 306c20-32 50-45 82-34 7-48 48-78 91-66 25-50 82-65 128-28-48-7-84 23-89 66-41-15-79 10-82 50-47-12-87 15-96 54-16-9-28-22-34-42Z"/>
    <path fill="#d58aae" d="M1260 245c16-26 39-37 65-29 19-35 55-47 88-30-29 5-49 24-54 51-33-8-60 8-70 37-17-5-26-14-29-29Z" opacity=".72"/>
    <path fill="#202e65" d="M1078 379c62-17 118-14 171 7 65-34 142-29 193 4 74-30 156-22 213 11-194 38-391 26-577-22Z" opacity=".82"/>
    <path fill="#ff956e" d="M1081 384c79 8 129 25 194 20 92-6 178-3 324-28-103 53-230 66-351 52-71-9-119-22-167-18Z" opacity=".62"/>
  </g>

  <!-- middle-distance rolling shelf -->
  <g display="none" opacity=".76">
    <path fill="#3d3975" d="M311 482c43-38 91-44 132-19 43-55 123-58 170-5 48-39 117-22 143 33 48-22 103 6 111 49-190 40-372 29-556-4Z"/>
    <path fill="#7c4c82" d="M353 485c42-17 80-13 113 12 50-35 109-32 155 5 54-25 107-15 141 19-144 25-277 17-409-5Z"/>
    <path fill="#e87078" d="M333 526c117 15 245 13 429-5-132 41-291 49-429 22Z" opacity=".62"/>
  </g>

  <!-- scattered horizon banks -->
  <g display="none" opacity=".55" fill="#413a77">
    <path d="M-25 642c38-31 76-34 109-8 34-45 98-44 130 4 38-24 88-9 104 30-111 25-225 19-343-1Z"/>
    <path d="M414 664c30-27 65-29 91-5 27-43 89-43 116 2 35-26 86-12 103 26-104 25-206 17-310-2Z"/>
    <path d="M817 642c33-30 69-33 98-5 31-48 96-45 126 4 42-27 94-8 107 36-112 24-221 16-331-5Z"/>
    <path d="M1240 666c27-26 59-28 85-5 25-39 79-38 104 3 34-22 76-7 87 31-91 19-182 13-276-5Z"/>
  </g>

  <!-- fine illuminated accents -->
  <g fill="#ffad7c" opacity=".74">
    <path d="M586 206c66 13 130 4 193-24-44 35-105 49-181 38Z"/>
    <path d="M763 252c45 8 88 2 131-18-30 27-75 38-126 30Z"/>
    <path d="M901 337c38 8 76 4 112-10-26 22-63 30-108 23Z"/>
    <path d="M137 420c58 9 109 0 158-22-36 33-90 45-150 36Z"/>
  </g>
</svg>
